<svg width="16" height="16" viewBox="0 0 16 16" fill="none" xmlns="http://www.w3.org/2000/svg">
<path d="M2.74707 1.5C2.05615 1.5 1.5 2.05762 1.5 2.75V13.5039C1.5 14.1968 2.05615 14.7539 2.74707 14.7539H13.2524C13.9438 14.7539 14.5 14.1968 14.5 13.5039V4.49316C14.5 3.66455 13.8301 2.99316 13.0034 2.99316H7.25C6.94336 2.99316 6.66309 2.81982 6.52539 2.54541L6.3374 2.17139C6.13037 1.75977 5.70996 1.5 5.25 1.5H2.74707Z" fill="#438DE6"/>
<path d="M8.24707 4.5C7.90381 4.5 7.59375 4.6377 7.36865 4.86133C7.08447 5.14307 6.6958 5.5 6.28955 5.5H2.74707C2.05615 5.5 1.5 6.05762 1.5 6.75V13.5039C1.5 14.1968 2.05615 14.7539 2.74707 14.7539H13.2524C13.9438 14.7539 14.5 14.1968 14.5 13.5039V5.75C14.5 5.05762 13.9438 4.5 13.2524 4.5H8.24707Z" fill="url(#paint0_linear_2_8)"/>
<path d="M8.24707 4C7.90381 4 7.59375 4.1377 7.36865 4.36133C7.08447 4.64307 6.6958 5 6.28955 5H2.74707C2.05615 5 1.5 5.55762 1.5 6.25V13.2471C1.5 13.9395 2.05615 14.4971 2.74707 14.4971H13.2524C13.9438 14.4971 14.5 13.9395 14.5 13.2471V5.25C14.5 4.55762 13.9438 4 13.2524 4H8.24707Z" fill="#A4CAEE"/>
<path d="M8.10939 8C8.05763 8 8.00685 8.0166 7.96388 8.0459L6.10402 9.2959C5.99171 9.37695 5.96534 9.53223 6.04542 9.64453C6.09327 9.71094 6.16847 9.75 6.24952 9.74902V10.75C6.24952 11.1611 6.58839 11.5 6.99952 11.5H9.25001C9.66114 11.5 10 11.1699 10 10.75V9.74902C10.0811 9.75 10.1563 9.71094 10.2041 9.64453C10.2842 9.53223 10.2578 9.37695 10.1455 9.2959L8.25489 8.0459C8.21193 8.0166 8.16114 8 8.10939 8ZM8.10939 8.55664L9.50001 9.44922V10.75C9.50001 10.8906 9.39064 11 9.25001 11H8.24952V10C8.24952 9.86133 8.1382 9.75 7.99952 9.75H7.74952C7.61085 9.75 7.49952 9.86133 7.49952 10V11H6.99952C6.8589 11 6.74952 10.8906 6.74952 10.75V9.44922L8.10939 8.55664Z" fill="#438DE6"/>
<defs>
<linearGradient id="paint0_linear_2_8" x1="1.49997" y1="13.9999" x2="14.5" y2="13.9999" gradientUnits="userSpaceOnUse">
<stop stop-color="#62A0EA"/>
<stop offset="0.0576991" stop-color="#AFD4FF"/>
<stop offset="0.122204" stop-color="#62A0EA"/>
<stop offset="0.873306" stop-color="#62A0EA"/>
<stop offset="0.955997" stop-color="#C0D5EA"/>
<stop offset="1" stop-color="#62A0EA"/>
</linearGradient>
</defs>
</svg>
