<svg width="16" height="16" viewBox="0 0 16 16" fill="none" xmlns="http://www.w3.org/2000/svg">
<path d="M6.60547 0.0585938C3.02734 0.0585938 0.105469 2.98047 0.105469 6.55859C0.105469 10.1367 3.02734 13.0547 6.60547 13.0547C8.03516 13.0547 9.35937 12.5898 10.4336 11.8008L13.4062 14.7734C14.3633 15.7148 15.7695 14.2773 14.8125 13.3359L11.8555 10.3789C12.6367 9.30469 13.1055 7.98438 13.1055 6.55859C13.1055 2.98047 10.1797 0.0585938 6.60547 0.0585938ZM6.60547 2.05859C9.10156 2.05859 11.1055 4.0625 11.1055 6.55859C11.1055 9.05469 9.10156 11.0547 6.60547 11.0547C4.10547 11.0547 2.10547 9.05469 2.10547 6.55859C2.10547 4.0625 4.10547 2.05859 6.60547 2.05859Z" fill="#F7FDFF"/>
</svg>
